<mxfile host="app.diagrams.net" agent="Mozilla/5.0 (Windows NT 10.0; Win64; x64) AppleWebKit/537.36 (KHTML, like Gecko) Chrome/134.0.0.0 Safari/537.36" version="26.1.1">
  <diagram name="PÃ¡gina-1" id="kNlDJgV9avD8djOGcSIu">
    <mxGraphModel dx="1050" dy="1691" grid="1" gridSize="10" guides="1" tooltips="1" connect="1" arrows="1" fold="1" page="1" pageScale="1" pageWidth="827" pageHeight="1169" math="0" shadow="0">
      <root>
        <mxCell id="0" />
        <mxCell id="1" parent="0" />
        <mxCell id="jApb8i5qB0LbAs33BWue-1" value="" style="html=1;points=[[0,0,0,0,5],[0,1,0,0,-5],[1,0,0,0,5],[1,1,0,0,-5]];perimeter=orthogonalPerimeter;outlineConnect=0;targetShapes=umlLifeline;portConstraint=eastwest;newEdgeStyle={&quot;curved&quot;:0,&quot;rounded&quot;:0};" vertex="1" parent="1">
          <mxGeometry x="39" y="-850" width="10" height="530" as="geometry" />
        </mxCell>
        <mxCell id="jApb8i5qB0LbAs33BWue-2" value=":interfazea" style="shape=umlLifeline;perimeter=lifelinePerimeter;whiteSpace=wrap;html=1;container=1;dropTarget=0;collapsible=0;recursiveResize=0;outlineConnect=0;portConstraint=eastwest;newEdgeStyle={&quot;curved&quot;:0,&quot;rounded&quot;:0};" vertex="1" parent="1">
          <mxGeometry x="144" y="-930" width="120" height="650" as="geometry" />
        </mxCell>
        <mxCell id="jApb8i5qB0LbAs33BWue-3" value="" style="html=1;points=[[0,0,0,0,5],[0,1,0,0,-5],[1,0,0,0,5],[1,1,0,0,-5]];perimeter=orthogonalPerimeter;outlineConnect=0;targetShapes=umlLifeline;portConstraint=eastwest;newEdgeStyle={&quot;curved&quot;:0,&quot;rounded&quot;:0};" vertex="1" parent="jApb8i5qB0LbAs33BWue-2">
          <mxGeometry x="55" y="110" width="10" height="450" as="geometry" />
        </mxCell>
        <mxCell id="jApb8i5qB0LbAs33BWue-4" value=":kontrola" style="shape=umlLifeline;perimeter=lifelinePerimeter;whiteSpace=wrap;html=1;container=1;dropTarget=0;collapsible=0;recursiveResize=0;outlineConnect=0;portConstraint=eastwest;newEdgeStyle={&quot;curved&quot;:0,&quot;rounded&quot;:0};" vertex="1" parent="1">
          <mxGeometry x="337.5" y="-930" width="120" height="660" as="geometry" />
        </mxCell>
        <mxCell id="jApb8i5qB0LbAs33BWue-5" value="" style="html=1;points=[[0,0,0,0,5],[0,1,0,0,-5],[1,0,0,0,5],[1,1,0,0,-5]];perimeter=orthogonalPerimeter;outlineConnect=0;targetShapes=umlLifeline;portConstraint=eastwest;newEdgeStyle={&quot;curved&quot;:0,&quot;rounded&quot;:0};" vertex="1" parent="jApb8i5qB0LbAs33BWue-4">
          <mxGeometry x="56.5" y="150" width="10" height="360" as="geometry" />
        </mxCell>
        <mxCell id="jApb8i5qB0LbAs33BWue-6" value=":bezeroa" style="shape=umlLifeline;perimeter=lifelinePerimeter;whiteSpace=wrap;html=1;container=1;dropTarget=0;collapsible=0;recursiveResize=0;outlineConnect=0;portConstraint=eastwest;newEdgeStyle={&quot;curved&quot;:0,&quot;rounded&quot;:0};" vertex="1" parent="1">
          <mxGeometry x="524" y="-930" width="120" height="660" as="geometry" />
        </mxCell>
        <mxCell id="jApb8i5qB0LbAs33BWue-7" value="" style="html=1;points=[[0,0,0,0,5],[0,1,0,0,-5],[1,0,0,0,5],[1,1,0,0,-5]];perimeter=orthogonalPerimeter;outlineConnect=0;targetShapes=umlLifeline;portConstraint=eastwest;newEdgeStyle={&quot;curved&quot;:0,&quot;rounded&quot;:0};" vertex="1" parent="jApb8i5qB0LbAs33BWue-6">
          <mxGeometry x="55" y="150" width="10" height="90" as="geometry" />
        </mxCell>
        <mxCell id="jApb8i5qB0LbAs33BWue-24" value="" style="html=1;points=[[0,0,0,0,5],[0,1,0,0,-5],[1,0,0,0,5],[1,1,0,0,-5]];perimeter=orthogonalPerimeter;outlineConnect=0;targetShapes=umlLifeline;portConstraint=eastwest;newEdgeStyle={&quot;curved&quot;:0,&quot;rounded&quot;:0};" vertex="1" parent="jApb8i5qB0LbAs33BWue-6">
          <mxGeometry x="55" y="300" width="10" height="90" as="geometry" />
        </mxCell>
        <mxCell id="jApb8i5qB0LbAs33BWue-8" value="bezeroaEzabatu" style="html=1;verticalAlign=bottom;endArrow=block;curved=0;rounded=0;" edge="1" parent="1">
          <mxGeometry x="-0.0026" width="80" relative="1" as="geometry">
            <mxPoint x="203.5" y="-780" as="sourcePoint" />
            <mxPoint x="394" y="-780" as="targetPoint" />
            <mxPoint as="offset" />
          </mxGeometry>
        </mxCell>
        <mxCell id="jApb8i5qB0LbAs33BWue-9" value="" style="html=1;verticalAlign=bottom;endArrow=block;curved=0;rounded=0;" edge="1" parent="1" target="jApb8i5qB0LbAs33BWue-3">
          <mxGeometry width="80" relative="1" as="geometry">
            <mxPoint x="54" y="-800" as="sourcePoint" />
            <mxPoint x="194" y="-800" as="targetPoint" />
            <mxPoint as="offset" />
          </mxGeometry>
        </mxCell>
        <mxCell id="jApb8i5qB0LbAs33BWue-10" value="&lt;span style=&quot;font-size: 11px; text-wrap-mode: nowrap; background-color: rgb(255, 255, 255);&quot;&gt;Aukeratu ezabatu nahi duzun bezeroaren id-a&lt;/span&gt;" style="text;html=1;align=center;verticalAlign=middle;whiteSpace=wrap;rounded=0;" vertex="1" parent="1">
          <mxGeometry x="54" y="-850" width="140" height="70" as="geometry" />
        </mxCell>
        <mxCell id="jApb8i5qB0LbAs33BWue-11" value="existsBezeroa(idBezeroa)" style="html=1;verticalAlign=bottom;endArrow=block;curved=0;rounded=0;" edge="1" parent="1">
          <mxGeometry width="80" relative="1" as="geometry">
            <mxPoint x="397" y="-760" as="sourcePoint" />
            <mxPoint x="579" y="-760" as="targetPoint" />
          </mxGeometry>
        </mxCell>
        <mxCell id="jApb8i5qB0LbAs33BWue-12" value="exists" style="html=1;verticalAlign=bottom;endArrow=open;dashed=1;endSize=8;curved=0;rounded=0;" edge="1" parent="1">
          <mxGeometry relative="1" as="geometry">
            <mxPoint x="580" y="-710" as="sourcePoint" />
            <mxPoint x="400" y="-710" as="targetPoint" />
          </mxGeometry>
        </mxCell>
        <mxCell id="jApb8i5qB0LbAs33BWue-13" value="[e==false] mezua itzuli" style="html=1;verticalAlign=bottom;endArrow=open;dashed=1;endSize=8;curved=0;rounded=0;" edge="1" parent="1">
          <mxGeometry relative="1" as="geometry">
            <mxPoint x="394" y="-680" as="sourcePoint" />
            <mxPoint x="203.5" y="-680" as="targetPoint" />
          </mxGeometry>
        </mxCell>
        <mxCell id="jApb8i5qB0LbAs33BWue-14" value="Sartutako bezeroaren id-a ez da existitzen" style="html=1;verticalAlign=bottom;endArrow=open;dashed=1;endSize=8;curved=0;rounded=0;" edge="1" parent="1">
          <mxGeometry x="0.0224" y="-10" relative="1" as="geometry">
            <mxPoint x="200" y="-650" as="sourcePoint" />
            <mxPoint x="44" y="-650" as="targetPoint" />
            <mxPoint as="offset" />
          </mxGeometry>
        </mxCell>
        <mxCell id="jApb8i5qB0LbAs33BWue-15" value="[e==true]&lt;div&gt;bezeroaEzabatu(idBezeroa)&lt;/div&gt;" style="html=1;verticalAlign=bottom;endArrow=block;curved=0;rounded=0;" edge="1" parent="1">
          <mxGeometry width="80" relative="1" as="geometry">
            <mxPoint x="400" y="-610" as="sourcePoint" />
            <mxPoint x="580" y="-610" as="targetPoint" />
          </mxGeometry>
        </mxCell>
        <mxCell id="jApb8i5qB0LbAs33BWue-18" value="bezeroaEzabatu" style="html=1;verticalAlign=bottom;endArrow=open;dashed=1;endSize=8;curved=0;rounded=0;" edge="1" parent="1" target="jApb8i5qB0LbAs33BWue-4">
          <mxGeometry relative="1" as="geometry">
            <mxPoint x="580" y="-550" as="sourcePoint" />
            <mxPoint x="660" y="-560" as="targetPoint" />
          </mxGeometry>
        </mxCell>
        <mxCell id="jApb8i5qB0LbAs33BWue-19" value="[bezeroaEzabatu==true] mezua itzuli" style="html=1;verticalAlign=bottom;endArrow=open;dashed=1;endSize=8;curved=0;rounded=0;" edge="1" parent="1" target="jApb8i5qB0LbAs33BWue-2">
          <mxGeometry relative="1" as="geometry">
            <mxPoint x="400" y="-510" as="sourcePoint" />
            <mxPoint x="320" y="-510" as="targetPoint" />
          </mxGeometry>
        </mxCell>
        <mxCell id="jApb8i5qB0LbAs33BWue-20" value="Bezeroa ezabatu da" style="html=1;verticalAlign=bottom;endArrow=open;dashed=1;endSize=8;curved=0;rounded=0;" edge="1" parent="1">
          <mxGeometry relative="1" as="geometry">
            <mxPoint x="210" y="-450" as="sourcePoint" />
            <mxPoint x="44" y="-450" as="targetPoint" />
          </mxGeometry>
        </mxCell>
        <mxCell id="jApb8i5qB0LbAs33BWue-21" value="Langilea" style="shape=umlActor;verticalLabelPosition=bottom;verticalAlign=top;html=1;" vertex="1" parent="1">
          <mxGeometry x="29" y="-930" width="30" height="60" as="geometry" />
        </mxCell>
      </root>
    </mxGraphModel>
  </diagram>
</mxfile>
